<svg width="19" height="19" viewBox="0 0 19 19" fill="none" xmlns="http://www.w3.org/2000/svg">
<path d="M9.22749 0C4.13165 0 0 4.13313 0 9.22749C0 14.3248 4.13165 18.455 9.22749 18.455C14.3233 18.455 18.455 14.3248 18.455 9.22749C18.455 4.13313 14.3233 0 9.22749 0ZM9.22749 4.09284C10.0906 4.09284 10.7902 4.79249 10.7902 5.65556C10.7902 6.51863 10.0906 7.21828 9.22749 7.21828C8.36442 7.21828 7.66477 6.51863 7.66477 5.65556C7.66477 4.79249 8.36442 4.09284 9.22749 4.09284ZM11.3111 13.5436C11.3111 13.7901 11.1112 13.9901 10.8646 13.9901H7.59035C7.34378 13.9901 7.14386 13.7901 7.14386 13.5436V12.6506C7.14386 12.404 7.34378 12.2041 7.59035 12.2041H8.03685V9.82281H7.59035C7.34378 9.82281 7.14386 9.6229 7.14386 9.37632V8.48334C7.14386 8.23676 7.34378 8.03685 7.59035 8.03685H9.97164C10.2182 8.03685 10.4181 8.23676 10.4181 8.48334V12.2041H10.8646C11.1112 12.2041 11.3111 12.404 11.3111 12.6506V13.5436Z" fill="white"/>
</svg>
