<svg width="20" height="20" viewBox="0 0 20 20" fill="none" xmlns="http://www.w3.org/2000/svg">
<path d="M4.4764 20H0.329876V6.64702H4.4764V20ZM2.4009 4.82555C1.07498 4.82555 -0.000488281 3.72732 -0.000488281 2.40139C-0.000488272 1.7645 0.252515 1.1537 0.702863 0.703352C1.15321 0.253003 1.76402 0 2.4009 0C3.03779 0 3.6486 0.253003 4.09895 0.703352C4.54929 1.1537 4.8023 1.7645 4.8023 2.40139C4.8023 3.72732 3.72638 4.82555 2.4009 4.82555ZM19.9955 20H15.8579V13.4999C15.8579 11.9507 15.8266 9.96406 13.702 9.96406C11.5462 9.96406 11.2158 11.6471 11.2158 13.3882V20H7.07378V6.64702H11.0506V8.46849H11.1087C11.6623 7.41936 13.0145 6.31219 15.032 6.31219C19.2285 6.31219 20 9.07565 20 12.665V20H19.9955Z" fill="#0F76BC"/>
</svg>
